<svg role="img" xmlns="http://www.w3.org/2000/svg" viewBox="0 0 24 24">
  <title>Instagram</title>
  <path d="M12 2.163c3.204 0 3.584.012 4.85.07 1.17.056 1.97.24 2.68.512.73.275 1.34.633 1.947 1.24.61.61.97 1.22 1.24 1.95.272.71.456 1.51.512 2.68.058 1.27.07 1.65.07 4.85s-.012 3.584-.07 4.85c-.056 1.17-.24 1.97-.512 2.68a5.282 5.282 0 0 1-1.24 1.947c-.61.61-1.22.97-1.95 1.24-.71.272-1.51.456-2.68.512-1.27.058-1.65.07-4.85.07s-3.584-.012-4.85-.07c-1.17-.056-1.97-.24-2.68-.512a5.282 5.282 0 0 1-1.947-1.24c-.61-.61-.97-1.22-1.24-1.95-.272-.71-.456-1.51-.512-2.68C2.175 15.747 2.163 15.367 2.163 12s.012-3.584.07-4.85c.056-1.17.24-1.97.512-2.68a5.282 5.282 0 0 1 1.24-1.947c.61-.61 1.22-.97 1.95-1.24.71-.272 1.51-.456 2.68-.512C8.415 2.175 8.795 2.163 12 2.163zm0-2.163C8.74 0 8.332.012 7.052.07 5.772.128 4.636.37 3.68.857 2.752 1.328 1.99 1.99 1.32 2.68c-.675.69-1.34 1.45-1.812 2.378-.487.957-.73 2.093-.79 3.373C-.012 8.332 0 8.74 0 12c0 3.26.012 3.668.07 4.948.06 1.28.303 2.417.79 3.373.487.957 1.147 1.72 2.036 2.377.69.69 1.45 1.34 2.378 1.812.956.487 2.093.73 3.373.79 1.28.058 1.688.07 4.948.07 3.26 0 3.668-.012 4.948-.07 1.28-.06 2.417-.303 3.373-.79.957-.487 1.72-1.147 2.377-2.036.69-.69 1.34-1.45 1.812-2.378.487-.956.73-2.093.79-3.373.058-1.28.07-1.688.07-4.948 0-3.26-.012-3.668-.07-4.948-.06-1.28-.303-2.417-.79-3.373-.487-.957-1.147-1.72-2.036-2.377C20.352 1.99 19.692 1.328 18.764.857 17.808.37 16.672.128 15.392.07 14.112.012 13.704 0 12 0zm0 5.838a6.162 6.162 0 1 0 0 12.324 6.162 6.162 0 0 0 0-12.324zm0 10.162a4 4 0 1 1 0-8 4 4 0 0 1 0 8zm6.406-11.845a1.44 1.44 0 1 0 0 2.882 1.44 1.44 0 0 0 0-2.882z"/>
</svg>